<?xml version="1.0" encoding="utf-8"?>
<!-- Generator: Adobe Illustrator 22.0.0, SVG Export Plug-In . SVG Version: 6.00 Build 0)  -->
<svg version="1.1" id="Слой_1" xmlns="http://www.w3.org/2000/svg" xmlns:xlink="http://www.w3.org/1999/xlink" x="0px" y="0px"
	 viewBox="0 0 960 640" style="enable-background:new 0 0 960 640;" xml:space="preserve">
<style type="text/css">
	.st0{fill:#D02237;}
	.st1{fill:#CC2137;}
	.st2{fill:#D02338;}
	.st3{fill:#D02238;}
	.st4{fill:#0170B3;}
	.st5{fill:#0084C5;}
	.st6{fill:#BE1E32;}
	.st7{fill:#0169AD;}
	.st8{fill:#D12238;}
	.st9{fill:#D02439;}
	.st10{fill:#CF2338;}
</style>
<g>
	<path class="st0" d="M495.7,0.2c-0.3,1.9-2,2.8-3.2,3.9c-15.1,15.2-30.3,30.3-45.4,45.5c-17,17-34,33.9-50.9,50.9
		c-12.8,12.8-25.6,25.5-38.3,38.4c-2.4,2.4-4.7,3.5-8.2,3.5c-19.3-0.2-38.7,0-58-0.1c-3,0-5.1,0.9-7.2,3.1
		c-8.1,8.4-16.5,16.5-24.8,24.6c-2.6,2.6-2.8,2.5-5.4-0.1c-32.3-32.2-64.7-64.5-97-96.7c-0.6-0.6-1.2-1.3-1.9-1.8
		c-0.3-0.3-0.8-0.3-1.3-0.5c-0.1,0.3-0.2,0.7-0.2,1c0,1.4,0,2.8,0,4.2c0,49.1,0,98.3,0,147.4c0,3,0.8,5.1,3,7.3
		c20.3,20.1,40.4,40.3,60.6,60.5c3.5,3.5,2.7,4,6.7,0c10-9.8,20.1-19.6,30.1-29.5c2.9-2.8,2.9-2.8,5.6-0.1
		c8.1,8.1,16.3,16.2,24.4,24.4c2,2,4,2.9,6.8,2.9c18.5-0.1,36.9-0.1,55.4-0.1c0.9,0,1.7,0,2.6,0c0.6,0,1.6-0.3,1.7,0.4
		c0.1,0.5-0.6,1.2-1,1.7c-8.8,8.9-17.7,17.8-26.6,26.6c-69.7,69.7-139.3,139.4-209,209.1c-36.7,36.7-73.4,73.4-110.1,110
		c-1.2,1.2-2,2.9-3.9,3.2c0-211.7,0-423.4,0-635.1c0-1.6-0.6-3.7,0.2-4.5c0.8-0.8,3-0.2,4.5-0.2C168.5,0.2,332.1,0.2,495.7,0.2z"/>
	<path class="st0" d="M386.8,185.8c2.5-11.6,10.2-18.4,23.1-19.4c2.6-0.2,5.2-0.2,7.8-0.2c88.9,0,177.7,0,266.6,0
		c1.8,0,3.7-0.6,5.5,0.5c-1.2,1.3-2.3,2.6-3.5,3.8c-3.3,3.4-6.7,6.6-9.9,10c-1.4,1.4-2.7,1.7-5,1.7c-3.6,0-2.4,0-3.6,0
		c-82.6,0-165.2,0-247.7,0c-1.9,0-3.8,0-5.7,0.2c-8.6,1.2-10.3,6-11.3,12.1c-0.4,2-0.2,4.2-0.2,6.3c0,7.5,0,15,0,22.5
		c0,2.1,0.3,4.1,0.7,6.2c1.1,6.8,6.1,9.9,12.5,10c6.8,0.1,13.6,0.1,20.4,0c2.6-0.1,4.6,0.5,6.4,2.5c4,4.3,8.3,8.4,12.5,12.6
		c0.5,0.5,1.2,0.9,0.8,1.7c-0.3,0.8-1.1,0.7-1.8,0.7c-13.2,0-26.5,0.2-39.7-0.1c-4.9-0.1-10-0.8-14.5-3.3
		c-8.9-4.9-12.6-12.9-14-22.4"/>
	<path class="st1" d="M257.4,241.7c-6.7,5.6-12.5,12.1-18.7,18.1c-5,4.8-9.9,9.8-14.8,14.7c-0.5,0.5-1.1,1.2-1.6,1.2
		c-0.7-0.1-0.6-1-0.6-1.7c0-15.5,0-31,0-46.5c0-1.4,0.3-2.5,1.5-3.6c14.4-14.1,28.7-28.4,43.1-42.6c8-8,16.1-15.9,24.1-23.9
		c1.5-1.5,2.9-2.6,5.4-2.6c15.1,0.1,30.3,0.1,45.4,0.1c0.9,0,2.2,0,2.4,0.4c0.4,0.8-0.7,1.4-1.3,1.9c-7.2,6.8-14,14-21.1,20.8
		c-10.4,9.9-20.4,20.3-30.7,30.4c-1.1,1.1-1.9,2.5-3.5,3.1c-5.8,2.7-5.8,2.9-2,8c2.3,3.1,3.6,6.7,5.7,9.9c1.7,2.6-0.2,5.4-3.1,4.4
		c-4.8-1.7-7.1,0.7-9.5,4c-1.9,2.5-4.1,4.7-6.1,7.1c-3.5,4.2-6,4.1-9.9,0.1C260.8,243.5,260.2,240.9,257.4,241.7z"/>
	<path class="st2" d="M601.4,284.6c-0.1-0.9-0.2-1.7-0.2-2.6c0-28,0-56.1,0-84.1c0-0.9,0-1.7,0-2.6c0.1-1,0.6-1.6,1.6-1.6
		c0.9,0,1.7,0,2.6,0c14.6,0,29.2,0,43.9,0c3.7,0,7.2,0.4,10.5,2.3c6.7,4,9,10.4,9.4,17.5c0.4,7.6,0.1,15.3,0.2,23
		c-0.7,2.8-1.3,5.7-2.1,8.5c-2,6.4-7.1,11.6-15.4,11.5c-5.2,0-10.4-0.1-15.7,0.1c-1.9,0-3.3-0.6-4.6-2c-3.9-4.1-8-8.2-12-12.3
		c-0.6-0.6-1.3-1.6-1.2-2.2c0.2-0.9,1.4-0.5,2.3-0.5c7.3,0,14.6,0,21.9,0c1.4,0,2.8,0.1,4.2-0.1c3.2-0.4,5.3-1.8,6.1-5.4
		c1.2-5.9,0.9-11.8,0.4-17.6c-0.3-3.6-2.6-5.1-6.6-5.2c-8.9-0.1-17.8-0.1-26.6-0.1c-3,0-3.1,0.1-3.1,3.3c0,12.9,0,25.8,0,38.6
		c0,9.6,0,19.1,0,28.7c0,1.9-0.4,2.8-2.6,2.8C610.1,284.4,605.7,284.5,601.4,284.6z"/>
	<path class="st3" d="M521.6,234.5c0-4.9-0.6-10.9-0.5-15.8c0.1-4,0.7-7.9,1.8-11.7c2.1-7.7,8.4-13.4,17.6-13.4
		c15,0.1,29.9,0,44.9,0c3.4,0,3.4,0.1,3.4,3.5c0,18.6,0,37.2,0,55.9c0,3.5-0.1,3.5-3.3,3.6c-2.8,0-5.6,0-8.4,0c-4,0-4.1,0.3-4.1-3.9
		c0-10.8,0-21.6,0-32.4c0-2.1-0.1-4.2,0-6.3c0.2-2.4-0.9-2.9-3-2.9c-8.5,0.1-17.1,0-25.6,0.1c-5.1,0.1-6.8,1.8-6.9,7
		c-0.1,4.5,0.1,9,0,13.6c-0.1,5.3,3.2,7.9,8.1,7.8c8.2-0.2,16.4-0.1,24.5,0c0.5,0,1,0.2,1.5,0.3c-0.2,0.5-0.3,1-0.6,1.3
		c-4.4,4.7-8.8,9.3-13.2,14c-1.2,1.3-2.7,1.4-4.3,1.4c-4.7,0-9.4-0.2-14.1,0c-7.8,0.3-14-3.8-16.6-13.4"/>
	<path class="st4" d="M201.1,185.2c-0.6-0.1-1-0.5-1.1-1.1c0-0.2-0.1-0.4-0.1-0.6c-1-1.6-2.1-2.5-3.6-0.5
		c0.1,21.3-0.3,42.6,0.2,63.9c0.3,1.5,0.8,3.9-0.1,4.4c-1.4,0.8-2.3-1.5-3.4-2.5c-8.1-7.9-16-16-24.1-23.9c-1.7-1.7-2.6-3.4-2.6-5.9
		c0.1-36.7,0.1-73.4,0.1-110.1c0-0.3,0.1-0.7,0.2-1c3.3,1.3,2.3,4.3,2.3,6.7c0.1,22.3,0.1,44.5,0.1,66.8c0,1.4-0.1,2.8,0,4.2
		c0.1,1.2-0.2,2.7,1.3,3.1c1.4,0.4,2.3-0.7,3-1.7c8.8-12.5,22.1-20.3,32-31.7c1.5-1.7,3.1-3.3,4.4-5.1c1-1.4,1.7-3.2,4-2.7
		c1.6,1.1,3,2.4,4,4c0.2,0.6,0.6,1,1.2,1.2c0.5,0,0.8,0.3,0.9,0.9c0.2,0.6,0.6,1,1.2,1.2c0.5,0,0.8,0.3,0.9,0.8
		c0.2,0.6,0.6,1,1.3,1.2c0.5,0,0.8,0.3,0.9,0.8c0.2,0.7,0.6,1.1,1.3,1.3c0.3,0.3,0.5,0.5,0.8,0.8c0.2,0.7,0.6,1.1,1.3,1.3
		c0.3,0.3,0.5,0.5,0.8,0.8c0.1,0.5,0.4,0.7,0.9,0.7c1,0.2,1.7,0.8,1.9,1.9c-0.2,2.3-0.9,4.5-2.7,6c-5.1,4.4-9.4,9.5-13.6,14.8
		c-2.9,3.6-6,5.1-10,1.5c-0.6-0.6-1.6-0.6-2.4-0.8C201.8,185.8,201.4,185.6,201.1,185.2z"/>
	<path class="st5" d="M213.7,147.5c-0.4,0.2-1.2,0.4-1.3,0.8c-2.1,5.6-7.2,8.6-10.8,12.9c-1.4,1.7-3.7,2.7-3.9,5.3
		c-0.1,1.2-1.2,1.1-2,1c-1.4-0.2-2.5,0.6-3,1.6c-1.4,2.8-3.9,4.3-6.6,5.3c-1.8,0.7-2.7,1.8-3.5,3.5c-1,2.5-2.1,5-5,6.2
		c-0.8,0.3-1.3,1.5-1.9,2.3c-1.2,1.7-2.6,3.3-4.2,4.5c-2.1,1.6-4,0.5-4-2.1c0-9.2,0-18.4,0-27.7c0-16.5,0-33-0.1-49.6
		c0-1.2,0.9-2.8-0.8-3.7c-0.2-2.3-0.8-4.7,0.3-6.9c1.7,1.5,3.4,2.9,5,4.5c12.9,12.8,25.8,25.7,38.7,38.6
		C211.7,145.1,212.7,146.4,213.7,147.5z"/>
	<path class="st6" d="M257.4,241.7c2.9-1.3,3-1.4,4.2,1.1c0.5,1.2,1.4,1.9,2.3,2.8c2.3,2.1,4.3,2.4,6.1-0.3
		c2.5-3.7,6.3-6.3,8.5-10.2c0.5-0.9,1.4-1.5,2.1-2.3c1.4-1.7,3.1-1.9,5.1-1c0.9,0.5,1.8,1.1,2.7,1.4c1,0.4,1.6-0.4,2.1-1
		c0.6-0.6,0.5-1.4-0.1-1.8c-3.2-2.2-3.9-5.9-5.5-9c-0.6-1.1-1.2-2.1-2.1-2.9c-1-0.9-3-1.2-2.2-3.4c1-2.6,1.9-3.5,4.8-3.7
		c0.5,0,1,0,1.6,0.1c-1.2,1.4-2.3,2.7-3.5,4.1c-0.3,0.4-0.2,0.7,0.1,1l0,0c0.3,0.4,0.7,0.7,1,1.1l0,0c0.4,0.3,0.7,0.7,1,1l0,0
		c0.4,0.3,0.7,0.7,1,1l0,0c0.4,0.3,0.7,0.7,1.1,1l0,0c0.3,0.4,0.7,0.8,1,1.1l0,0c0.3,0.4,0.7,0.7,1.1,1c8.8,8.6,17.6,17.2,26.4,25.9
		c8.5,8.4,17,16.9,25.5,25.4c0.5,0.5,1.2,1.2,1.1,1.6c-0.2,1.1-1.3,0.7-2.1,0.7c-15.1,0-30.3-0.1-45.4,0.1c-2.4,0-3.9-1-5.4-2.5
		c-10.1-10.1-20.2-20.2-30.3-30.2C259,243,258.2,242.4,257.4,241.7z"/>
	<path class="st7" d="M202,185.3c1.2-0.4,2.3-1.8,3.6-0.1c0.6,0.8,1.5,1.4,2.2,2.2c1,1.1,1.9,1.3,3,0.1c2.7-3,6.4-5.3,7.9-9.4
		c0.5-1.2,1.3-2.1,2.2-2.7c4.1-2.6,7.5-5.7,9.3-10.4c0.1-0.3,0.5-0.4,0.8-0.5c4.5,4.5,9.1,9,13.7,13.5c1.4,1.3,1.7,2.3,0.2,3.8
		c-7.4,7.3-14.7,14.7-22.1,22c-0.9,0.9-1.7,2-3,0.6c-5.6-6.3-12.4-11.5-17.7-18.1c-0.3-0.2-0.4-0.4-0.3-0.6
		C201.8,185.4,201.9,185.3,202,185.3z"/>
	<path class="st5" d="M196.5,246.9c-1.2-0.7-0.7-1.8-0.7-2.8c0-19.8,0-39.6,0-59.4c0-1.5-1-3.8,2.1-3.6c0.1,0.2,0.3,0.3,0.4,0.5
		c-0.1,0.2-0.3,0.3-0.4,0.5c-2.2,1.1-1,3.1-1.1,4.6c-0.1,18.2,0,36.3-0.1,54.5C196.7,243.1,196.6,245,196.5,246.9z"/>
	<path class="st7" d="M221.1,154.9c-0.9,0.1-1.3-0.3-1.2-1.2C220.2,154,220.7,154.4,221.1,154.9z"/>
	<path class="st1" d="M285.6,218.7c-0.6-0.1-1-0.4-1-1C285.2,217.8,285.5,218.1,285.6,218.7z"/>
	<path class="st1" d="M286.6,219.8c-0.6-0.1-1-0.4-1-1C286.2,218.8,286.6,219.2,286.6,219.8z"/>
	<path class="st7" d="M223.2,156.9c-0.9,0.1-1.3-0.3-1.3-1.2C222.4,156.1,222.8,156.5,223.2,156.9z"/>
	<path class="st1" d="M288.8,221.8c-0.7-0.1-1-0.4-1-1.1C288.4,220.8,288.7,221.2,288.8,221.8z"/>
	<path class="st1" d="M289.9,222.9c-0.7,0-1.1-0.3-1.1-1C289.4,221.9,289.8,222.2,289.9,222.9z"/>
	<path class="st7" d="M227.5,161.1c-1,0.1-1.4-0.3-1.3-1.3C226.6,160.2,227,160.7,227.5,161.1z"/>
	<path class="st7" d="M229.1,162.5c-0.2,0.2-0.4,0.3-0.6,0.5c-0.1-0.4-0.2-0.8-0.3-1.2C228.5,162.1,228.8,162.3,229.1,162.5z"/>
	<path class="st7" d="M225.3,159c-1,0.1-1.4-0.3-1.3-1.3C224.5,158.2,224.9,158.6,225.3,159z"/>
	<path class="st5" d="M198.9,183.2c-0.6-0.1-1-0.4-1.1-1l0.1-0.1c0.5-0.1,0.8,0,1.1,0.4C199,182.7,198.9,182.9,198.9,183.2z"/>
	<path class="st5" d="M200,184.1c-0.6,0-1-0.3-1.1-1l0.1-0.1C199.7,182.9,200.1,183.2,200,184.1L200,184.1z"/>
	<path class="st5" d="M202,185.3c0,0.3,0,0.6,0,0.9c-0.6,0-1-0.3-1-1C201.4,185.2,201.7,185.3,202,185.3z"/>
	<path class="st1" d="M283.5,216.6c-0.3-0.1-0.6-0.3-0.9-0.4c0.2-0.2,0.5-0.4,0.7-0.6C283.5,215.9,283.5,216.3,283.5,216.6z"/>
	<path class="st1" d="M284.5,217.7c-0.6-0.1-0.9-0.5-1-1.1C284.2,216.7,284.4,217.1,284.5,217.7z"/>
	<path class="st7" d="M219,152.8c-0.9,0.1-1.3-0.3-1.2-1.2C218.2,152,218.6,152.4,219,152.8z"/>
	<path class="st1" d="M287.8,220.8c-0.7,0-1-0.4-1.1-1C287.3,219.8,287.7,220.1,287.8,220.8z"/>
	<path class="st0" d="M697.8,197.6c0,0.3,0.2,0.7,0.5,0.8c0.2,0.1,0.7,0,0.9-0.2c0.9-0.9,1.6-1.8,2.5-2.7
		c8.7-8.8,17.5-17.5,26.1-26.3c2.1-2.2,4.3-3,7.3-3c5.7,0.2,11.5,0,17.2,0.1c0.5,0,0.9,0.3,1.4,0.4c-0.2,0.4-0.4,1-0.7,1.3
		c-6.4,6.4-12.8,12.8-19.1,19.2c-7,7-14,14.1-21.1,21c-1.3,1.2-1.5,1.9-0.1,3.3c9,8.8,17.9,17.6,26.7,26.4c1.4,1.4,2.8,1.7,4.7,1.7
		c9.1-0.1,18.1,0.1,27.2-0.1c2.5,0,4.2,0.7,5.9,2.5c4.2,4.4,8.5,8.7,12.8,13.1c0.5,0.5,1.1,1.2,1,1.7c-0.2,0.7-1.1,0.4-1.7,0.4
		c-7.8,0-15.7,0-23.5,0c-9.1,0-18.1-0.1-27.2,0.1c-3,0.1-5.1-0.9-7.3-3.1c-9.6-9.9-19.3-19.5-29-29.3c-0.7-0.7-1.5-1.5-2.2-2.2
		c-0.7-0.7-1.4-1.1-1.6,0.4c-0.3,1.9-0.7,3.7-0.6,5.7c0.1,8.7,0,17.4,0.3,26.1c0,1.8-0.6,2.2-2,2.3c-4.2,0.1-8.4,0-12.5,0
		c-2,0-2.8-1-2.7-2.9c0.1-3.8,0-7.7,0-11.5c0-6.3,0-12.5,0-18.8c0-9.4,0.1-18.8-0.1-28.2c-0.1-2.9,0.9-4.9,2.9-6.8
		c4.2-4.1,8.2-8.5,12.3-12.8c0.8-0.8,1.6-1.6,1.9,0.4"/>
	<path class="st8" d="M793.5,192.6c5.6,0,11.2-0.2,16.7,0.1c4.5,0.2,8.8,1.4,12.2,4.9c2.6,2.6,3.9,5.8,4.5,9.2
		c0.7,3.9,1.4,7.8,1.3,11.9c-0.2,7,0.3,13.9-0.1,20.9c-0.6,9.2-0.8,6.5-1.9,9.6c-1.2,3.4-3.4,5.5-6.9,6.3c-0.7,0.2-1.3,0.4-2,0.6
		c-9.1,2.2-9.7,2-16.3-4.7c-3.2-3.2-6.2-6.6-9.3-9.9c-0.3-0.4-0.8-0.9-0.7-1.3c0.2-0.9,1.1-0.5,1.7-0.5c3.8,0,7.7,0,11.5,0
		c5.9-0.1,7.9-1.8,8.2-7.7c0.2-4.7,0.4-9.4,0-14.1c-0.5-5.6-2-8.4-8.8-8.5c-7-0.1-13.9-0.1-20.9,0c-6,0.1-8.5,2.7-8.8,8.6
		c-0.1,2.4,0,4.9-0.1,7.3c-0.1,3.6-0.2,3.7-4,3.7c-3.1,0-6.3,0-9.4,0c-1.9,0-3-0.6-3-2.6c0-7.3,0.3-14.6,2.2-21.7
		c2-7.6,8-11.7,16.8-12.2c3-0.2,5.9-0.1,8.9-0.2c2.8,0,5.6,0,8.4,0C793.5,192.5,793.5,192.5,793.5,192.6z"/>
	<path class="st9" d="M476.1,212.4c-0.8-1.7-2.3-1.2-3.6-1.2c-5.2,0-10.4,0-15.7,0c-0.9,0-1.7,0-2.6,0c-1.4,0.1-3.3,0-3.7-1.1
		c-0.4-1.1,1.4-2.1,2.3-3c3.8-3.9,7.6-7.6,11.3-11.5c1.3-1.4,2.7-1.9,4.6-1.9c14.3,0.1,28.5,0.1,42.8,0c2.2,0,3.2,0.5,3,2.9
		c-0.2,3.6,0,7.3-0.1,11c-0.1,3.5-0.2,3.7-4,3.7c-9.9,0-19.8,0-29.8,0.1c-1.4,0-3.2-0.9-4,1.2C476.5,212.5,476.3,212.4,476.1,212.4z
		"/>
	<path class="st10" d="M491.5,254.8c0,1.3-0.7,1.8-1.9,1.8c-4,0-8,0-12,0c-1.3,0-1.8-0.7-1.8-1.9c0-1.2,0-2.4,0-3.7
		c0-11.3,0-22.6,0-33.9c0-1.5-0.3-3.1,0.4-4.6c0.2,0,0.4,0,0.6,0c4.6,4.7,9.1,9.4,13.7,14c1,1,1.2,2,1.2,3.3"/>
	<path class="st7" d="M200,184.1c-0.4-0.3-0.7-0.7-1.1-1c-0.1-0.6-0.5-0.9-1-1c-0.1-0.3-0.1-0.6-0.1-0.9
		C201.3,181.3,201.6,181.6,200,184.1z"/>
</g>
</svg>
